<?xml version="1.0" standalone="no"?>
<!DOCTYPE svg PUBLIC "-//W3C//DTD SVG 20010904//EN"
 "http://www.w3.org/TR/2001/REC-SVG-20010904/DTD/svg10.dtd">
<svg version="1.0" xmlns="http://www.w3.org/2000/svg"
 width="100.000000pt" height="100.000000pt" viewBox="0 0 100.000000 100.000000"
 preserveAspectRatio="xMidYMid meet">

<g transform="translate(0.000000,100.000000) scale(0.100000,-0.100000)"
fill="#000000" stroke="none">
<path d="M334 906 c-19 -19 -34 -44 -34 -57 0 -45 29 -340 34 -348 3 -5 -3
-16 -14 -26 -18 -16 -21 -16 -44 -2 -29 19 -45 59 -26 65 23 8 50 42 50 62 0
33 -35 60 -80 60 -45 0 -80 -27 -80 -60 0 -20 32 -60 49 -60 5 0 12 -12 16
-27 7 -31 52 -83 71 -83 6 0 24 -16 38 -35 26 -34 29 -35 97 -35 l69 0 0 -29
c0 -20 -6 -30 -20 -34 -16 -4 -20 -14 -20 -51 0 -29 -4 -46 -12 -46 -6 0 -30
-9 -53 -20 -45 -22 -83 -76 -72 -104 10 -26 26 -19 41 18 16 39 60 66 105 66
29 0 30 -2 33 -48 2 -34 7 -47 18 -47 11 0 16 13 18 47 3 46 4 48 33 48 45 0
89 -27 105 -66 15 -37 31 -44 41 -18 11 28 -27 82 -72 104 -23 11 -47 20 -53
20 -8 0 -12 17 -12 46 0 37 -4 47 -20 51 -14 4 -20 14 -20 34 l0 29 66 0 c63
0 68 2 98 35 18 19 37 35 42 35 17 0 62 54 69 83 4 15 11 27 16 27 17 0 49 40
49 60 0 33 -35 60 -80 60 -45 0 -80 -27 -80 -60 0 -20 27 -54 50 -62 19 -6 3
-46 -26 -65 -23 -14 -26 -14 -44 2 -11 10 -17 21 -14 26 5 8 34 303 34 348 0
13 -15 38 -34 57 l-34 34 -132 0 -132 0 -34 -34z m306 -26 c11 -11 20 -28 20
-37 0 -42 -30 -325 -35 -334 -8 -12 -242 -12 -250 0 -5 9 -35 292 -35 334 0 9
9 26 20 37 18 18 33 20 140 20 107 0 122 -2 140 -20z m-385 -280 c0 -18 -52
-27 -67 -12 -17 17 2 33 35 30 20 -2 32 -8 32 -18z m560 0 c0 -18 -52 -27 -67
-12 -17 17 2 33 35 30 20 -2 32 -8 32 -18z m-160 -170 l0 -25 -153 -3 c-129
-2 -153 0 -158 13 -4 8 -4 22 0 30 5 13 29 15 158 13 l153 -3 0 -25z m-135
-200 c0 -23 -4 -30 -20 -30 -16 0 -20 7 -20 30 0 23 4 30 20 30 16 0 20 -7 20
-30z"/>
</g>
</svg>
